<svg width="38" height="38" viewBox="0 0 38 38" fill="none" xmlns="http://www.w3.org/2000/svg">
<path d="M6.33333 20.5833H15.8333C16.7042 20.5833 17.4167 19.8708 17.4167 19V6.33333C17.4167 5.4625 16.7042 4.75 15.8333 4.75H6.33333C5.4625 4.75 4.75 5.4625 4.75 6.33333V19C4.75 19.8708 5.4625 20.5833 6.33333 20.5833ZM6.33333 33.25H15.8333C16.7042 33.25 17.4167 32.5375 17.4167 31.6667V25.3333C17.4167 24.4625 16.7042 23.75 15.8333 23.75H6.33333C5.4625 23.75 4.75 24.4625 4.75 25.3333V31.6667C4.75 32.5375 5.4625 33.25 6.33333 33.25ZM22.1667 33.25H31.6667C32.5375 33.25 33.25 32.5375 33.25 31.6667V19C33.25 18.1292 32.5375 17.4167 31.6667 17.4167H22.1667C21.2958 17.4167 20.5833 18.1292 20.5833 19V31.6667C20.5833 32.5375 21.2958 33.25 22.1667 33.25ZM20.5833 6.33333V12.6667C20.5833 13.5375 21.2958 14.25 22.1667 14.25H31.6667C32.5375 14.25 33.25 13.5375 33.25 12.6667V6.33333C33.25 5.4625 32.5375 4.75 31.6667 4.75H22.1667C21.2958 4.75 20.5833 5.4625 20.5833 6.33333Z" fill="#333333"/>
</svg>
