<svg width="33" height="33" viewBox="0 0 33 33" fill="none" xmlns="http://www.w3.org/2000/svg">
<path d="M19.25 4.49488C19.25 3.531 18.469 2.75 17.5051 2.75H15.4963C14.531 2.75 13.75 3.531 13.75 4.49488C13.75 5.28963 13.2055 5.97162 12.4644 6.26312C12.3475 6.30987 12.2306 6.35937 12.1165 6.40887C11.3864 6.72512 10.5187 6.62888 9.955 6.0665C9.62781 5.73954 9.18418 5.55588 8.72162 5.55588C8.25907 5.55588 7.81544 5.73954 7.48825 6.0665L6.0665 7.48825C5.73954 7.81544 5.55588 8.25907 5.55588 8.72162C5.55588 9.18418 5.73954 9.62781 6.0665 9.955V9.955C6.63025 10.5187 6.7265 11.385 6.4075 12.1165C6.35738 12.2316 6.30925 12.3476 6.26312 12.4644C5.97162 13.2055 5.28963 13.75 4.49488 13.75C3.531 13.75 2.75 14.531 2.75 15.4949V17.5051C2.75 18.469 3.531 19.25 4.49488 19.25C5.28963 19.25 5.97162 19.7945 6.26312 20.5356C6.30987 20.6525 6.35937 20.7694 6.4075 20.8835C6.72512 21.6136 6.62888 22.4813 6.0665 23.045C5.73954 23.3722 5.55588 23.8158 5.55588 24.2784C5.55588 24.7409 5.73954 25.1846 6.0665 25.5118L7.48825 26.9335C7.81544 27.2605 8.25907 27.4441 8.72162 27.4441C9.18418 27.4441 9.62781 27.2605 9.955 26.9335C10.5187 26.3697 11.385 26.2735 12.1165 26.5911C12.2306 26.642 12.3475 26.6901 12.4644 26.7369C13.2055 27.0284 13.75 27.7104 13.75 28.5051C13.75 29.469 14.531 30.25 15.4949 30.25H17.5051C18.469 30.25 19.25 29.469 19.25 28.5051C19.25 27.7104 19.7945 27.0284 20.5356 26.7355C20.6525 26.6901 20.7694 26.642 20.8835 26.5925C21.6136 26.2735 22.4813 26.3711 23.0436 26.9335C23.2057 27.0956 23.398 27.2242 23.6098 27.3119C23.8215 27.3997 24.0485 27.4448 24.2777 27.4448C24.5069 27.4448 24.7338 27.3997 24.9456 27.3119C25.1573 27.2242 25.3497 27.0956 25.5118 26.9335L26.9335 25.5118C27.2605 25.1846 27.4441 24.7409 27.4441 24.2784C27.4441 23.8158 27.2605 23.3722 26.9335 23.045V23.045C26.3697 22.4813 26.2735 21.615 26.5911 20.8835C26.642 20.7694 26.6901 20.6525 26.7369 20.5356C27.0284 19.7945 27.7104 19.25 28.5051 19.25C29.469 19.25 30.25 18.469 30.25 17.5051V15.4963C30.25 14.5324 29.469 13.7514 28.5051 13.7514C27.7104 13.7514 27.0284 13.2069 26.7355 12.4657C26.6894 12.349 26.6413 12.233 26.5911 12.1179C26.2749 11.3877 26.3711 10.5201 26.9335 9.95638C27.2605 9.62918 27.4441 9.18555 27.4441 8.723C27.4441 8.26044 27.2605 7.81682 26.9335 7.48963L25.5118 6.06788C25.1846 5.74092 24.7409 5.55725 24.2784 5.55725C23.8158 5.55725 23.3722 5.74092 23.045 6.06788V6.06788C22.4813 6.63163 21.615 6.72788 20.8835 6.41025C20.7684 6.35966 20.6524 6.31107 20.5356 6.2645C19.7945 5.97163 19.25 5.28963 19.25 4.49625V4.49488Z" stroke="black" stroke-width="2"/>
<path d="M22 16.5C22 17.9587 21.4205 19.3576 20.3891 20.3891C19.3576 21.4205 17.9587 22 16.5 22C15.0413 22 13.6424 21.4205 12.6109 20.3891C11.5795 19.3576 11 17.9587 11 16.5C11 15.0413 11.5795 13.6424 12.6109 12.6109C13.6424 11.5795 15.0413 11 16.5 11C17.9587 11 19.3576 11.5795 20.3891 12.6109C21.4205 13.6424 22 15.0413 22 16.5V16.5Z" stroke="black" stroke-width="2"/>
</svg>
