<svg width="41" height="41" viewBox="0 0 41 41" fill="none" xmlns="http://www.w3.org/2000/svg">
<path d="M32.6719 30.75H31.7109V17.1367C31.7109 11.4872 27.5349 6.81865 22.1016 6.04189V4.48438C22.1016 3.59951 21.3849 2.88281 20.5 2.88281C19.6151 2.88281 18.8984 3.59951 18.8984 4.48438V6.04189C13.4651 6.81865 9.28906 11.4872 9.28906 17.1367V30.75H8.32812C7.61943 30.75 7.04688 31.3226 7.04688 32.0312V33.3125C7.04688 33.4887 7.19102 33.6328 7.36719 33.6328H16.0156C16.0156 36.1072 18.0256 38.1172 20.5 38.1172C22.9744 38.1172 24.9844 36.1072 24.9844 33.6328H33.6328C33.809 33.6328 33.9531 33.4887 33.9531 33.3125V32.0312C33.9531 31.3226 33.3806 30.75 32.6719 30.75ZM20.5 35.5547C19.439 35.5547 18.5781 34.6938 18.5781 33.6328H22.4219C22.4219 34.6938 21.561 35.5547 20.5 35.5547ZM12.1719 30.75V17.1367C12.1719 14.9105 13.0367 12.8205 14.6103 11.247C16.1838 9.67344 18.2738 8.80859 20.5 8.80859C22.7262 8.80859 24.8162 9.67344 26.3897 11.247C27.9633 12.8205 28.8281 14.9105 28.8281 17.1367V30.75H12.1719Z" fill="black"/>
</svg>
